<svg width="146" height="32" viewBox="0 0 146 32" fill="none" xmlns="http://www.w3.org/2000/svg">
<path d="M33.305 26.2059L36.0329 6.70882C37.5526 6.55752 39.6713 6.48187 42.3889 6.48187C44.7711 6.48187 46.4209 6.86012 47.3382 7.61319C48.2554 8.36625 48.5772 9.72451 48.2931 11.6811C48.0877 13.0944 47.6838 14.15 47.0849 14.8446C46.4859 15.5427 45.5926 15.9485 44.4117 16.0585L44.3843 16.1995C46.9719 16.4058 48.0227 18.1595 47.5333 21.4572C47.2321 23.4172 46.5954 24.7342 45.6199 25.4116C44.6445 26.089 43.0324 26.4294 40.7836 26.4294C37.5047 26.4329 35.0129 26.3572 33.305 26.2059ZM36.3718 24.0052L40.3661 24.0327C41.9029 24.0327 42.981 23.8126 43.6005 23.369C44.2201 22.9255 44.6239 22.0555 44.8088 20.7557C44.997 19.363 44.8498 18.4243 44.3741 17.9429C43.8949 17.4615 42.8989 17.2139 41.3792 17.1932H37.3301L36.3718 24.0052ZM37.6382 15.0166H41.5195C42.8681 15.0166 43.8401 14.7896 44.4323 14.3392C45.0244 13.8887 45.4112 13.0394 45.5994 11.7946C45.7671 10.6082 45.6165 9.82767 45.1476 9.44942C44.6787 9.07461 43.7135 8.88548 42.252 8.88548H38.4836L37.6382 15.0166Z" fill="white"/>
<path d="M60.5328 12.417H63.3736C62.3605 16.9009 61.0393 20.6972 59.4067 23.8057C57.9452 26.5945 56.494 28.5717 55.0598 29.7408C53.6257 30.91 51.9144 31.663 49.9258 32L49.4192 30.0503C50.6206 29.7683 51.6679 29.3454 52.5681 28.778C53.4683 28.2141 54.3308 27.3544 55.1557 26.2059H53.8893C53.458 26.2059 53.0918 26.089 52.794 25.8517C52.4928 25.6179 52.3045 25.2912 52.2327 24.8752L49.5903 12.4135H52.462L54.543 23.5753C54.5978 23.8951 54.786 24.0568 55.1043 24.0568H56.4837C56.559 23.9261 56.6617 23.7301 56.7917 23.4791C56.9218 23.2246 57.0074 23.0595 57.045 22.9839C58.6948 19.5384 59.8585 16.0172 60.5328 12.417Z" fill="white"/>
<path d="M68.9697 14.5351L67.8711 22.279C67.7786 22.9392 67.8368 23.3862 68.0525 23.62C68.2681 23.8573 68.7028 23.9742 69.3599 23.9742H71.4136L71.5265 26.0924C70.7016 26.3366 69.6338 26.4603 68.3194 26.4603C67.1009 26.4603 66.2247 26.1199 65.6908 25.4425C65.1568 24.7651 64.972 23.7954 65.1431 22.5334L66.2692 14.5351H63.7672L64.0205 12.5579L66.5807 12.4169L67.1728 8.37653H69.846L69.2846 12.4169H73.5049L73.2242 14.5351H68.9697Z" fill="white"/>
<path d="M84.8067 23.9192L84.9745 25.7554C83.643 26.2815 81.7571 26.5463 79.3201 26.5463C76.9756 26.5463 75.3532 25.9308 74.453 24.6963C73.5528 23.4618 73.2722 21.5465 73.6076 18.9469C73.9636 16.2923 74.6892 14.4767 75.7879 13.507C76.8831 12.5373 78.6903 12.0524 81.2026 12.0524C83.3418 12.0524 84.7931 12.4307 85.5632 13.1837C86.3333 13.9368 86.6139 15.0475 86.4086 16.5192C86.1827 17.8569 85.659 18.8231 84.8341 19.4146C84.0092 20.0094 82.7428 20.3705 81.0383 20.5012L76.2842 20.9241C76.2636 22.2239 76.5374 23.1042 77.0988 23.565C77.6601 24.0258 78.5432 24.2562 79.7411 24.2562C81.0178 24.2562 82.7052 24.1461 84.8067 23.9192ZM76.4519 18.8884L81.0383 18.4655C81.9009 18.4105 82.5306 18.2248 82.9243 17.9153C83.3179 17.6058 83.5711 17.0625 83.6841 16.2888C83.797 15.4051 83.6499 14.8584 83.2494 14.6486C82.8455 14.4423 82.0275 14.3391 80.7885 14.3391C79.3646 14.3391 78.3549 14.6348 77.7662 15.2297C77.1707 15.8212 76.7325 17.0419 76.4519 18.8884Z" fill="white"/>
<path d="M92.7097 6.42682L91.9499 12.135C91.7822 13.3798 91.5357 14.432 91.2174 15.2985C92.1176 14.3942 93.1068 13.6308 94.1849 13.0084C95.2631 12.386 96.2625 12.0765 97.1798 12.0765C98.2682 12.0765 99.1034 12.2794 99.6818 12.6851C100.264 13.0909 100.674 13.844 100.921 14.9443C101.164 16.0447 101.126 17.5577 100.808 19.4799C100.603 21.0239 100.312 22.2824 99.9351 23.2521C99.5586 24.2218 99.0726 24.9439 98.4736 25.415C97.8746 25.8861 97.2654 26.1956 96.6459 26.3469C96.0263 26.4982 95.2288 26.5738 94.2568 26.5738C91.9704 26.5738 89.6635 26.2334 87.3361 25.556L90.0092 6.42682H92.7097ZM91.1627 17.4477L90.2351 24.2287C91.5836 24.2837 92.5865 24.3146 93.2437 24.3146C95.0235 24.3146 96.1975 24.0292 96.7588 23.4515C97.3201 22.8773 97.7514 21.4881 98.0526 19.2839C98.3162 17.231 98.3435 15.9106 98.1382 15.326C97.9328 14.7415 97.3989 14.4492 96.5363 14.4492C95.2049 14.4526 93.4148 15.4498 91.1627 17.4477Z" fill="white"/>
<path d="M114.369 26.2059H112.23L112.342 23.6613C110.693 25.5835 108.725 26.5429 106.435 26.5429C104.765 26.5429 103.642 25.9962 103.06 24.9027C102.478 23.8092 102.376 21.887 102.752 19.1395C102.957 17.6128 103.248 16.3645 103.625 15.3948C104.001 14.4251 104.498 13.703 105.117 13.2319C105.737 12.7608 106.373 12.4445 107.03 12.2863C107.688 12.1281 108.53 12.0456 109.563 12.0456C111.795 12.0456 114.037 12.2897 116.285 12.7815L114.369 26.2059ZM112.315 21.2336L113.301 14.3942C111.576 14.3564 110.611 14.3392 110.405 14.3392C109.43 14.3392 108.69 14.3873 108.184 14.4802C107.677 14.573 107.232 14.8137 106.849 15.2023C106.466 15.5874 106.182 16.0826 106.004 16.6843C105.826 17.2861 105.651 18.1733 105.483 19.339C105.22 21.3918 105.189 22.7123 105.384 23.2934C105.583 23.878 106.12 24.1702 107.003 24.1702C107.866 24.1702 108.708 23.9295 109.536 23.4481C110.354 22.9736 111.285 22.2343 112.315 21.2336Z" fill="white"/>
<path d="M121.457 12.417L121.317 15.3846C123.792 13.1632 125.958 12.0491 127.813 12.0491C128.977 12.0491 129.857 12.3826 130.456 13.0532C131.055 13.7237 131.26 14.6796 131.075 15.921L129.614 26.206H126.913L128.234 16.5984C128.347 15.7319 128.313 15.1438 128.135 14.8309C127.957 14.5215 127.567 14.3633 126.968 14.3633C126.198 14.3633 125.397 14.6005 124.562 15.0682C123.727 15.5393 122.635 16.313 121.286 17.3858L120.078 26.2025H117.35L119.291 12.4136H121.457V12.417Z" fill="white"/>
<path d="M143.058 12.4169H145.844C145.057 14.8859 143.537 16.9284 141.288 18.548C141.569 18.9813 141.85 19.528 142.134 20.1883L144.807 26.2059H141.881L139.238 19.8478C138.393 20.3017 137.308 20.8278 135.976 21.4296L135.275 26.2059H132.574L135.33 6.42682H138.057L136.818 15.694C136.651 16.8253 136.349 17.9531 135.918 19.0845C137.698 18.2351 139.242 17.2448 140.546 16.1032C141.843 14.965 142.682 13.7374 143.058 12.4169Z" fill="white"/>
<path d="M13.6311 20.03H0.155884V26.8007H13.6311V20.03Z" fill="white"/>
<path d="M20.3225 6.53687H6.84729V20.0748H20.3225V6.53687Z" fill="white"/>
<path d="M6.8028 0H0.248291V6.49216H6.8028V0Z" fill="white"/>
<path d="M26.7368 0H20.2747V6.49216H26.7368V0Z" fill="white"/>
</svg>
