<svg width="662" height="413" viewBox="0 0 662 413" fill="none" xmlns="http://www.w3.org/2000/svg">
<g opacity="0.3">
<rect width="39.3175" height="39.3175" transform="matrix(1.19249e-08 -1 -1 -1.19249e-08 131.738 161.27)" fill="#D9D9D9"/>
<rect width="39.3175" height="39.3175" transform="matrix(1.19249e-08 -1 -1 -1.19249e-08 131.738 121.952)" fill="#D9D9D9" fill-opacity="0.5"/>
<rect width="39.3175" height="39.3175" transform="matrix(1.19249e-08 -1 -1 -1.19249e-08 92.4207 121.952)" fill="#D9D9D9" fill-opacity="0.9"/>
<rect width="39.3175" height="39.3175" transform="matrix(1.19249e-08 -1 -1 -1.19249e-08 131.738 82.6347)" fill="#D9D9D9" fill-opacity="0.9"/>
<rect width="39.3175" height="39.3175" transform="matrix(1.19249e-08 -1 -1 -1.19249e-08 131.738 43.3174)" fill="#D9D9D9" fill-opacity="0.5"/>
<rect width="39.3175" height="39.3175" transform="matrix(1.19249e-08 -1 -1 -1.19249e-08 171.056 43.3174)" fill="#D9D9D9" fill-opacity="0.9"/>
<rect width="39.3175" height="39.3175" transform="matrix(1.19249e-08 -1 -1 -1.19249e-08 55.3176 161.27)" fill="#D9D9D9" fill-opacity="0.9"/>
</g>
<g opacity="0.3">
<rect width="39.3175" height="39.3175" transform="matrix(1.19249e-08 -1 -1 -1.19249e-08 621.738 412.27)" fill="#D9D9D9"/>
<rect width="39.3175" height="39.3175" transform="matrix(1.19249e-08 -1 -1 -1.19249e-08 621.738 372.952)" fill="#D9D9D9" fill-opacity="0.5"/>
<rect width="39.3175" height="39.3175" transform="matrix(1.19249e-08 -1 -1 -1.19249e-08 582.421 372.952)" fill="#D9D9D9" fill-opacity="0.9"/>
<rect width="39.3175" height="39.3175" transform="matrix(1.19249e-08 -1 -1 -1.19249e-08 621.738 333.635)" fill="#D9D9D9" fill-opacity="0.9"/>
<rect width="39.3175" height="39.3175" transform="matrix(1.19249e-08 -1 -1 -1.19249e-08 621.738 294.318)" fill="#D9D9D9" fill-opacity="0.5"/>
<rect width="39.3175" height="39.3175" transform="matrix(1.19249e-08 -1 -1 -1.19249e-08 661.055 294.318)" fill="#D9D9D9" fill-opacity="0.9"/>
<rect width="39.3175" height="39.3175" transform="matrix(1.19249e-08 -1 -1 -1.19249e-08 545.317 412.27)" fill="#D9D9D9" fill-opacity="0.9"/>
</g>
<path d="M344.974 333.266L366.221 327.566C365.72 334.038 364.367 340.11 361.748 345.116C355.601 356.865 348.006 362.889 339.862 364.896C331.703 366.906 322.891 364.911 314.272 360.401C305.653 355.892 298.989 349.791 295.988 341.943C292.993 334.108 293.611 324.433 299.757 312.685C302.805 306.858 308.013 301.617 314.149 297.029C320.281 292.444 327.31 288.531 333.966 285.351C340.621 282.171 346.891 279.728 351.498 278.081C353.801 277.257 355.687 276.632 356.997 276.214C357.652 276.004 358.163 275.847 358.51 275.741C358.532 275.735 358.553 275.728 358.574 275.722C358.621 275.868 358.679 276.049 358.746 276.261C358.953 276.914 359.249 277.872 359.606 279.09C360.319 281.526 361.276 285 362.248 289.148C364.176 297.377 366.157 308.243 366.422 318.927L344.583 332.357L344.974 333.266Z" stroke="#47A138"/>
<path d="M316.467 360.251C324.722 355.204 332.473 345.918 339.6 332.463C339.601 332.463 339.601 332.462 339.601 332.462L340.209 331.299C340.209 331.299 340.209 331.299 340.21 331.299C342.615 326.654 344.942 321.539 347.189 315.952L347.19 315.948C347.354 315.553 347.514 315.149 347.668 314.742L347.672 314.734L347.672 314.734C348.199 313.418 348.718 312.075 349.229 310.705L349.229 310.704C351.274 305.253 353.024 299.955 354.49 295.16L354.49 295.158C354.57 294.901 354.647 294.647 354.724 294.393C354.772 294.234 354.819 294.076 354.868 293.917C357.572 284.915 359.212 277.876 359.789 275.274L359.79 275.271C359.845 275.03 359.889 274.827 359.924 274.664L359.905 274.66L359.897 274.663L359.769 274.636L359.622 274.606C359.203 276.538 357.528 283.95 354.571 293.733C354.45 294.147 354.325 294.57 354.194 294.991C354.194 294.991 354.194 294.991 354.194 294.992L353.716 294.843C351.902 300.759 349.637 307.478 346.922 314.329L316.467 360.251ZM316.467 360.251L316.386 360.117L316.383 360.111L316.313 359.992C325.435 354.411 333.06 344 339.231 332.358C339.435 331.982 339.646 331.593 339.846 331.197L316.467 360.251Z" fill="white" stroke="#47A138"/>
<path d="M353.907 294.054C354.335 294.226 354.762 294.382 355.176 294.532L355.176 294.532L355.18 294.534C358.339 295.65 361.639 296.312 364.983 296.499C365.001 296.602 365.02 296.705 365.039 296.809C361.661 296.627 358.326 295.962 355.135 294.835L355.132 294.834C354.72 294.691 354.307 294.54 353.902 294.379L353.9 294.378C352.697 293.903 351.52 293.365 350.373 292.765L350.373 292.765C345.723 290.339 341.666 286.921 338.486 282.756C338.58 282.714 338.674 282.673 338.767 282.631C341.916 286.735 345.925 290.103 350.515 292.496C351.618 293.073 352.75 293.593 353.907 294.054ZM353.907 294.054C353.907 294.054 353.907 294.054 353.907 294.054L354.092 293.59L353.907 294.054C353.907 294.054 353.907 294.054 353.907 294.054Z" fill="white" stroke="#47A138"/>
<path d="M367.415 318.349C367.417 318.452 367.418 318.554 367.42 318.657C360.754 319.523 353.976 318.495 347.863 315.685C347.461 315.496 347.061 315.302 346.658 315.099L346.659 315.098L346.649 315.094C346.493 315.019 346.34 314.939 346.177 314.854C341.111 312.204 336.751 308.385 333.455 303.713C330.226 299.136 328.111 293.868 327.277 288.331C327.371 288.279 327.465 288.228 327.56 288.176C328.363 293.621 330.415 298.81 333.56 303.334C336.843 308.058 341.22 311.918 346.317 314.584L346.321 314.586C346.436 314.646 346.568 314.716 346.701 314.777C347.104 314.988 347.513 315.187 347.928 315.375C354.015 318.191 360.772 319.22 367.415 318.349Z" fill="white" stroke="#47A138"/>
<path d="M340.459 331.99C348.726 335.499 358.001 335.757 366.434 332.731C366.414 332.844 366.393 332.957 366.371 333.069C357.869 336.079 348.541 335.785 340.241 332.237C339.826 332.057 339.417 331.871 339.01 331.673L339.01 331.672L338.998 331.667C338.57 331.472 338.143 331.256 337.713 331.031C331 327.51 325.567 321.962 322.187 315.177C318.838 308.456 317.671 300.858 318.847 293.445C318.959 293.369 319.072 293.294 319.185 293.218C317.985 300.437 319.026 307.86 322.184 314.482C325.511 321.458 331.009 327.17 337.854 330.761L337.854 330.761C338.295 330.992 338.741 331.21 339.187 331.421L339.188 331.422C339.606 331.618 340.029 331.81 340.459 331.99ZM340.459 331.99C340.459 331.99 340.458 331.99 340.458 331.989L340.653 331.529L340.46 331.99C340.46 331.99 340.46 331.99 340.459 331.99ZM367.075 331.959C366.895 332.029 366.714 332.097 366.533 332.163L366.977 332.531C367.003 332.386 367.028 332.239 367.052 332.092C367.06 332.048 367.068 332.003 367.075 331.959Z" fill="white" stroke="#47A138"/>
<path d="M86.8679 278.314C86.9352 278.102 86.993 277.921 87.0403 277.775C87.061 277.781 87.0825 277.788 87.1045 277.794C87.4511 277.9 87.9618 278.057 88.6168 278.267C89.9267 278.685 91.8133 279.31 94.1164 280.134C98.7234 281.782 104.994 284.224 111.648 287.404C118.304 290.584 125.334 294.497 131.465 299.082C137.601 303.671 142.809 308.911 145.857 314.738C152.004 326.486 152.621 336.161 149.626 343.996C146.626 351.844 139.961 357.945 131.342 362.455C122.723 366.964 113.911 368.96 105.752 366.949C97.6087 364.942 90.013 358.918 83.8667 347.17C81.2472 342.163 79.8941 336.091 79.3934 329.619L100.64 335.319L101.031 334.41L79.1918 320.98C79.4569 310.296 81.4386 299.43 83.366 291.202C84.3378 287.053 85.2947 283.579 86.0085 281.143C86.3653 279.926 86.6613 278.967 86.8679 278.314Z" stroke="#47A138"/>
<path d="M90.2678 296.116C90.3151 296.271 90.3625 296.428 90.4102 296.586C90.4876 296.842 90.566 297.102 90.6465 297.36C92.1142 302.163 93.8682 307.471 95.9168 312.934C96.4291 314.307 96.9496 315.653 97.4784 316.974C97.6347 317.385 97.7968 317.793 97.9616 318.193C100.214 323.792 102.547 328.922 104.961 333.583M90.2678 296.116L90.7466 295.972C90.7465 295.972 90.7464 295.971 90.7463 295.971M90.2678 296.116L90.7459 295.97C90.7461 295.97 90.7462 295.97 90.7463 295.971M90.2678 296.116C87.559 287.098 85.9158 280.047 85.3371 277.436C85.2098 276.876 85.1369 276.521 85.1098 276.388C85.1078 276.379 85.106 276.37 85.1045 276.363L91.4202 297.044M90.7463 295.971C90.7947 296.129 90.8424 296.287 90.8901 296.445C90.9669 296.7 91.0437 296.954 91.1238 297.211L91.1246 297.214C92.59 302.009 94.3408 307.307 96.3849 312.758L96.3852 312.759C96.8962 314.128 97.4153 315.471 97.9426 316.788L97.9459 316.796L97.9458 316.796C98.1004 317.203 98.2607 317.607 98.4238 318.002L98.4255 318.006C100.672 323.592 102.999 328.707 105.404 333.352L105.404 333.351L104.961 333.583M90.7463 295.971C88.0421 286.968 86.402 279.93 85.8252 277.327L85.8252 277.327L85.8246 277.325C85.7697 277.084 85.7251 276.881 85.69 276.718L85.7097 276.714L85.7178 276.716L85.8449 276.69L85.9918 276.659C86.4113 278.591 88.086 286.004 91.0427 295.786C91.1639 296.201 91.289 296.623 91.4202 297.044M104.961 333.583L105.405 333.353M104.961 333.583L105.572 334.75M105.405 333.353L91.8979 296.897C93.7127 302.813 95.9768 309.532 98.6925 316.383C98.8545 316.791 99.0166 317.199 99.1814 317.599C101.266 322.778 103.61 328.005 106.214 333.023C106.41 333.413 106.619 333.797 106.824 334.176C113.078 345.975 120.791 356.429 129.982 361.871L129.66 362.423L129.575 362.563C129.511 362.523 129.448 362.486 129.392 362.453L129.388 362.451C129.326 362.414 129.272 362.382 129.219 362.349L129.219 362.349L129.212 362.344C129.19 362.331 129.169 362.318 129.147 362.305M105.405 333.353L106.013 334.516L105.572 334.75M105.405 333.353L91.4202 297.044M105.572 334.75C112.72 348.246 120.525 357.62 128.889 362.733L129.147 362.305M105.572 334.75L106.015 334.518L106.014 334.517C113.141 347.972 120.892 357.258 129.147 362.305M129.147 362.305L129.228 362.17L129.231 362.165L129.301 362.045C120.179 356.465 112.554 346.054 106.383 334.412C106.179 334.036 105.968 333.647 105.768 333.251C103.157 328.217 100.807 322.977 98.7184 317.787C98.5525 317.385 98.3896 316.975 98.2281 316.568L98.2278 316.567L98.2277 316.567C95.5062 309.702 93.2379 302.97 91.4202 297.044M128.981 362.79L129.105 362.864C129.064 362.84 129.022 362.815 128.981 362.79Z" fill="white" stroke="#47A138"/>
<path d="M80.5759 298.863C80.5456 299.03 80.515 299.198 80.4839 299.368C83.9497 299.192 87.3727 298.516 90.6465 297.36C91.0638 297.215 91.4839 297.062 91.8979 296.897C93.1175 296.415 94.3108 295.869 95.4728 295.262C100.223 292.783 104.363 289.284 107.599 285.018C107.441 284.948 107.284 284.879 107.129 284.81M80.5759 298.863C83.9535 298.68 87.2887 298.016 90.48 296.888L90.4827 296.887L90.4827 296.888C90.8949 296.745 91.3076 296.594 91.7128 296.432L91.7143 296.431C92.9175 295.956 94.0947 295.418 95.2411 294.819L95.2414 294.819C99.8914 292.392 103.949 288.974 107.129 284.81M80.5759 298.863C80.4052 298.872 80.2344 298.88 80.0634 298.887C80.1133 298.612 80.162 298.341 80.2097 298.074M80.5759 298.863C80.5947 298.759 80.6134 298.656 80.6319 298.553M107.129 284.81C107.233 284.674 107.335 284.537 107.437 284.399C107.197 284.293 106.959 284.187 106.72 284.081L106.688 284.066M107.129 284.81C107.035 284.768 106.941 284.726 106.847 284.684M106.847 284.684C106.928 284.579 107.009 284.473 107.088 284.366L106.688 284.066M106.847 284.684C106.737 284.635 106.627 284.587 106.518 284.538L106.485 284.523L106.688 284.066M106.847 284.684C103.698 288.789 99.6893 292.156 95.0997 294.549M106.688 284.066C103.549 288.255 99.5096 291.686 94.8682 294.106M94.8682 294.106L95.0999 294.549C95.0998 294.549 95.0998 294.549 95.0997 294.549M94.8682 294.106C93.7798 294.675 92.6629 295.189 91.522 295.643M94.8682 294.106L95.0994 294.55C95.0995 294.55 95.0996 294.55 95.0997 294.549M95.0997 294.549C93.9963 295.126 92.8641 295.647 91.7075 296.108M91.522 295.643L91.7079 296.108C91.7078 296.108 91.7077 296.108 91.7075 296.108M91.522 295.643C91.1022 295.812 90.6821 295.965 90.2679 296.116C87.0299 297.26 83.6406 297.92 80.2097 298.074M91.522 295.643L91.7072 296.108C91.7073 296.108 91.7074 296.108 91.7075 296.108M91.7075 296.108C91.2794 296.279 90.8524 296.435 90.4386 296.586L90.4345 296.587L90.4345 296.587C87.2759 297.703 83.9753 298.365 80.6319 298.553M80.6319 298.553C80.6555 298.422 80.6789 298.291 80.702 298.161L80.2097 298.074M80.6319 298.553C80.4987 298.56 80.3654 298.567 80.2321 298.573L80.2097 298.074" fill="white" stroke="#47A138"/>
<path d="M118.054 290.23C118.149 290.281 118.244 290.333 118.338 290.385C117.504 295.922 115.389 301.189 112.159 305.767C108.864 310.438 104.503 314.257 99.4379 316.907C99.2749 316.993 99.121 317.073 98.9656 317.147L98.9655 317.147L98.956 317.152C98.5535 317.355 98.1538 317.55 97.751 317.739C91.6381 320.548 84.86 321.577 78.1944 320.71C78.1961 320.608 78.1979 320.505 78.1999 320.403C84.842 321.274 91.5993 320.244 97.6861 317.428C98.1014 317.241 98.5107 317.042 98.9139 316.831C99.0462 316.769 99.1787 316.7 99.2943 316.639L99.297 316.638C104.394 313.971 108.771 310.112 112.054 305.388C115.199 300.864 117.251 295.675 118.054 290.23Z" fill="white" stroke="#47A138"/>
<path d="M106.616 333.72L106.616 333.721C107.044 333.525 107.471 333.309 107.901 333.084C114.614 329.563 120.047 324.016 123.428 317.231C126.777 310.509 127.943 302.912 126.767 295.499C126.655 295.423 126.543 295.347 126.43 295.272C127.629 302.49 126.588 309.913 123.43 316.535C120.103 323.512 114.606 329.223 107.761 332.815L107.76 332.815C107.319 333.046 106.874 333.264 106.427 333.475L106.426 333.476C106.009 333.672 105.586 333.863 105.155 334.043C105.155 334.044 105.154 334.044 105.154 334.044L106.616 333.72ZM106.616 333.72L106.605 333.726C106.197 333.925 105.788 334.11 105.373 334.291L106.616 333.72Z" fill="white" stroke="#47A138"/>
<path d="M186.608 315.447C186.623 315.401 186.636 315.358 186.649 315.317C186.842 315.376 187.093 315.454 187.395 315.551C188.173 315.799 189.293 316.17 190.662 316.66C193.4 317.639 197.126 319.091 201.08 320.98C205.035 322.87 209.208 325.193 212.844 327.912C216.484 330.634 219.558 333.732 221.354 337.164C224.994 344.122 225.345 349.82 223.588 354.416C221.825 359.026 217.904 362.627 212.798 365.298C207.692 367.969 202.498 369.137 197.706 367.956C192.929 366.779 188.448 363.241 184.808 356.284C183.304 353.409 182.504 349.928 182.19 346.199L194.561 349.518L194.953 348.609L182.051 340.675C182.219 334.371 183.388 327.966 184.527 323.104C185.105 320.639 185.674 318.574 186.098 317.127C186.31 316.404 186.485 315.835 186.608 315.447Z" stroke="#47A138"/>
<path d="M197.186 348.289L197.55 348.984C201.816 357.038 206.475 362.627 211.469 365.666C211.541 365.711 211.614 365.751 211.686 365.797L211.89 365.458L212.082 365.13C206.611 361.89 202.018 355.666 198.295 348.642C198.173 348.417 198.049 348.188 197.932 347.956C196.382 344.968 194.986 341.857 193.746 338.773C193.647 338.535 193.551 338.292 193.455 338.049C191.838 333.971 190.49 329.971 189.41 326.449C189.332 326.2 189.258 325.95 189.186 325.703C187.381 319.734 186.381 315.25 186.166 314.254C186.138 314.133 186.125 314.065 186.121 314.05L185.745 314.128L185.74 314.126L185.361 314.206C185.365 314.222 185.409 314.448 185.504 314.863C185.848 316.418 186.826 320.615 188.439 325.984C188.513 326.226 188.587 326.476 188.665 326.725C189.538 329.584 190.583 332.744 191.802 335.996C192.107 336.813 192.417 337.615 192.732 338.401C192.825 338.646 192.921 338.889 193.019 339.127C194.36 342.46 195.749 345.514 197.186 348.289Z" fill="#47A138"/>
<path d="M182.451 327.149C182.406 327.405 182.358 327.667 182.309 327.933C184.477 327.854 186.62 327.447 188.665 326.724C188.913 326.638 189.163 326.547 189.41 326.448C190.136 326.162 190.846 325.837 191.538 325.475C194.456 323.952 196.988 321.783 198.939 319.132C198.694 319.024 198.454 318.917 198.215 318.81C196.346 321.304 193.941 323.346 191.178 324.787C190.53 325.126 189.865 325.432 189.186 325.702C188.936 325.803 188.686 325.894 188.439 325.984C186.511 326.665 184.494 327.058 182.451 327.149Z" fill="#47A138"/>
<path d="M180.965 340.101C180.958 340.363 180.954 340.624 180.95 340.884C185.058 341.47 189.248 340.859 193.019 339.126C193.262 339.012 193.503 338.895 193.745 338.772C193.844 338.726 193.94 338.675 194.036 338.625C197.094 337.025 199.726 334.72 201.715 331.901C203.704 329.081 204.992 325.828 205.474 322.411C205.232 322.275 204.988 322.144 204.744 322.013C204.32 325.363 203.092 328.561 201.165 331.333C199.237 334.106 196.668 336.372 193.676 337.937C193.604 337.975 193.528 338.014 193.454 338.049C193.217 338.173 192.976 338.29 192.732 338.4C189.058 340.1 184.969 340.691 180.965 340.101Z" fill="#47A138"/>
<path d="M181.457 348.545C181.507 348.843 181.556 349.137 181.617 349.429C186.792 351.307 192.487 351.148 197.55 348.984C197.799 348.875 198.047 348.763 198.295 348.642C198.557 348.523 198.817 348.391 199.075 348.256C203.127 346.131 206.406 342.782 208.446 338.687C210.487 334.592 211.185 329.957 210.441 325.443C210.148 325.241 209.849 325.047 209.549 324.85C210.44 329.299 209.866 333.917 207.913 338.012C205.96 342.107 202.733 345.46 198.715 347.568C198.457 347.703 198.195 347.831 197.932 347.956C197.686 348.071 197.438 348.184 197.186 348.289C192.176 350.416 186.534 350.508 181.457 348.545Z" fill="#47A138"/>
<path d="M442.353 227.033L442.297 227.028C431.916 225.314 420.383 225.315 407.04 227.03H407.034C406.702 227.034 406.371 226.972 406.062 226.848C405.754 226.724 405.472 226.54 405.235 226.306C404.998 226.073 404.809 225.794 404.68 225.488C404.551 225.181 404.483 224.852 404.482 224.519V212.435C404.483 211.768 404.748 211.129 405.219 210.658C405.69 210.186 406.33 209.921 406.996 209.92C418.746 208.388 430.646 208.389 442.395 209.923H442.4C443.059 209.933 443.688 210.202 444.15 210.672C444.612 211.142 444.87 211.776 444.868 212.435V224.519C444.867 225.185 444.602 225.824 444.13 226.296C443.659 226.767 443.02 227.032 442.353 227.033Z" fill="white"/>
<path d="M442.353 227.033L442.297 227.028C431.916 225.314 420.383 225.315 407.04 227.03H407.034C406.702 227.034 406.371 226.972 406.062 226.848C405.754 226.724 405.472 226.54 405.235 226.306C404.998 226.073 404.809 225.794 404.68 225.488C404.551 225.181 404.483 224.852 404.482 224.519V212.435C404.483 211.768 404.748 211.129 405.219 210.658C405.69 210.186 406.33 209.921 406.996 209.92C418.746 208.388 430.646 208.389 442.395 209.923H442.4C443.059 209.933 443.688 210.202 444.15 210.672C444.612 211.142 444.87 211.776 444.868 212.435V224.519C444.867 225.185 444.602 225.824 444.13 226.296C443.659 226.767 443.02 227.032 442.353 227.033ZM424.226 209.458C418.479 209.448 412.738 209.83 407.043 210.602C406.799 210.598 406.557 210.642 406.33 210.732C406.104 210.823 405.897 210.957 405.723 211.127C405.548 211.298 405.409 211.501 405.314 211.725C405.218 211.95 405.168 212.191 405.166 212.435V224.519C405.167 225.004 405.36 225.469 405.703 225.812C406.046 226.155 406.511 226.348 406.996 226.349C420.351 224.629 431.939 224.628 442.38 226.348C442.861 226.341 443.319 226.145 443.656 225.802C443.993 225.46 444.183 224.999 444.183 224.519V212.435C444.183 211.95 443.99 211.485 443.647 211.142C443.304 210.798 442.838 210.606 442.353 210.605C436.34 209.851 430.286 209.468 424.226 209.458Z" fill="#47A138"/>
<path d="M424.675 222.692C427.321 222.692 429.467 220.547 429.467 217.9C429.467 215.254 427.321 213.109 424.675 213.109C422.029 213.109 419.883 215.254 419.883 217.9C419.883 220.547 422.029 222.692 424.675 222.692Z" fill="#47A138"/>
<path d="M412.354 215.397H408.247C407.974 215.396 407.713 215.288 407.521 215.096C407.328 214.903 407.22 214.642 407.22 214.37V213.001C407.22 212.729 407.328 212.468 407.521 212.275C407.713 212.083 407.974 211.974 408.247 211.974H412.354C412.626 211.974 412.887 212.083 413.079 212.275C413.272 212.468 413.38 212.729 413.38 213.001V214.37C413.38 214.642 413.272 214.903 413.079 215.096C412.887 215.288 412.626 215.396 412.354 215.397Z" fill="#47A138"/>
<path d="M441.103 224.98H436.996C436.724 224.979 436.463 224.871 436.27 224.679C436.078 224.486 435.97 224.225 435.969 223.953V222.584C435.97 222.312 436.078 222.051 436.27 221.858C436.463 221.666 436.724 221.558 436.996 221.557H441.103C441.375 221.558 441.636 221.666 441.829 221.858C442.021 222.051 442.13 222.312 442.13 222.584V223.953C442.13 224.225 442.021 224.486 441.829 224.679C441.636 224.871 441.375 224.979 441.103 224.98Z" fill="#47A138"/>
<path d="M436.51 222.036L436.46 222.01C427.562 216.393 416.937 211.909 403.977 208.3L403.972 208.298C403.664 208.172 403.384 207.987 403.148 207.752C402.911 207.518 402.724 207.238 402.596 206.931C402.468 206.624 402.403 206.294 402.403 205.961C402.403 205.628 402.469 205.299 402.597 204.991L407.296 193.859C407.556 193.245 408.049 192.759 408.667 192.508C409.284 192.257 409.976 192.262 410.591 192.52C422.012 195.678 432.974 200.306 443.202 206.289L443.207 206.291C443.81 206.556 444.285 207.048 444.527 207.661C444.77 208.274 444.762 208.958 444.503 209.564L439.804 220.697C439.544 221.311 439.051 221.797 438.434 222.048C437.816 222.299 437.124 222.294 436.51 222.036Z" fill="white"/>
<path d="M436.51 222.036L436.46 222.01C427.562 216.393 416.937 211.909 403.977 208.3L403.972 208.298C403.664 208.172 403.384 207.987 403.148 207.752C402.911 207.518 402.724 207.238 402.596 206.931C402.468 206.624 402.403 206.294 402.403 205.961C402.403 205.628 402.469 205.299 402.597 204.991L407.296 193.859C407.556 193.245 408.049 192.759 408.667 192.508C409.284 192.257 409.976 192.262 410.591 192.52C422.012 195.678 432.974 200.306 443.202 206.289L443.207 206.291C443.81 206.556 444.285 207.048 444.527 207.661C444.77 208.274 444.762 208.958 444.503 209.564L439.804 220.697C439.544 221.311 439.051 221.797 438.434 222.048C437.816 222.299 437.124 222.294 436.51 222.036ZM426.644 198.795C421.353 196.55 415.916 194.67 410.369 193.166C410.146 193.067 409.905 193.014 409.661 193.009C409.418 193.004 409.175 193.047 408.948 193.137C408.721 193.226 408.514 193.359 408.339 193.529C408.164 193.698 408.024 193.901 407.927 194.125L403.228 205.258C403.04 205.705 403.037 206.208 403.219 206.658C403.402 207.107 403.755 207.466 404.202 207.655C417.174 211.264 427.851 215.77 436.801 221.415C437.246 221.595 437.745 221.593 438.189 221.409C438.632 221.224 438.986 220.873 439.174 220.431L443.873 209.298C444.061 208.851 444.064 208.347 443.881 207.898C443.699 207.448 443.345 207.09 442.899 206.901C437.652 203.867 432.224 201.16 426.644 198.795V198.795Z" fill="#47A138"/>
<path d="M423.775 211.538C426.421 211.538 428.566 209.393 428.566 206.746C428.566 204.1 426.421 201.955 423.775 201.955C421.128 201.955 418.983 204.1 418.983 206.746C418.983 209.393 421.128 211.538 423.775 211.538Z" fill="#47A138"/>
<path d="M413.397 199.648L409.613 198.051C409.362 197.945 409.164 197.744 409.062 197.492C408.959 197.24 408.961 196.957 409.066 196.706L409.599 195.445C409.705 195.194 409.906 194.996 410.158 194.893C410.411 194.791 410.693 194.793 410.944 194.898L414.728 196.495C414.979 196.602 415.177 196.803 415.279 197.055C415.382 197.307 415.38 197.59 415.274 197.841L414.742 199.102C414.636 199.353 414.435 199.551 414.182 199.653C413.93 199.756 413.648 199.754 413.397 199.648Z" fill="#47A138"/>
<path d="M436.156 219.658L432.373 218.06C432.122 217.954 431.924 217.753 431.821 217.501C431.719 217.249 431.72 216.966 431.826 216.715L432.358 215.454C432.464 215.203 432.666 215.005 432.918 214.902C433.17 214.8 433.453 214.802 433.704 214.907L437.487 216.504C437.738 216.611 437.936 216.812 438.039 217.064C438.141 217.316 438.14 217.599 438.034 217.85L437.502 219.111C437.395 219.362 437.194 219.56 436.942 219.662C436.69 219.765 436.407 219.763 436.156 219.658Z" fill="#47A138"/>
<path d="M447.686 213.086C447.182 213.835 446.524 214.469 445.758 214.945L445.679 214.993C444.337 215.813 442.742 216.111 441.195 215.833C439.648 215.554 438.257 214.718 437.285 213.483C436.314 212.247 435.829 210.698 435.923 209.129C436.017 207.56 436.684 206.08 437.796 204.97L437.857 204.909L437.894 204.831L447.334 185.046L458.799 184.305L447.138 204.745L446.962 205.054L447.196 205.322C447.81 206.024 448.263 206.853 448.522 207.749C448.781 208.646 448.84 209.588 448.696 210.51C448.552 211.432 448.207 212.311 447.686 213.086Z" stroke="black"/>
<path d="M538.752 359.758H531.302L527.433 328.389L538.753 328.389L538.752 359.758Z" stroke="black"/>
<path d="M541.392 368.392L514.333 368.391V368.049C514.333 365.256 515.443 362.577 517.418 360.602C519.393 358.627 522.072 357.517 524.865 357.517H524.866L541.393 357.518L541.392 368.392Z" fill="#2F2E41"/>
<path d="M481.254 359.758H473.804L469.935 328.389L481.255 328.389L481.254 359.758Z" stroke="black"/>
<path d="M483.894 368.392L456.835 368.391V368.049C456.835 365.256 457.945 362.577 459.92 360.602C461.895 358.627 464.574 357.517 467.367 357.517H467.367L483.894 357.518L483.894 368.392Z" fill="#2F2E41"/>
<path d="M460.174 184.66C460.174 184.66 457.866 217.531 462.412 234.085C466.958 250.64 467.77 350.753 467.77 350.753H483.009L496.216 214.478L526.664 351.234L541.179 350.236L533.219 189.087L460.174 184.66Z" fill="#2F2E41"/>
<path d="M526.922 73.8532L515.273 65.3524L495.752 69.6028L490.468 82.1582L481.363 86.6726C478.37 88.1569 475.781 90.3459 473.82 93.0516C471.859 95.7572 470.584 98.8986 470.105 102.206L457.098 192.03L533.219 189.087L542.434 83.3018C542.531 82.1967 542.404 81.0836 542.063 80.0283C541.721 78.973 541.171 77.9969 540.446 77.1578C539.72 76.3187 538.834 75.6337 537.839 75.1433C536.844 74.6529 535.761 74.367 534.653 74.3027L526.922 73.8532Z" fill="#CBCBCB"/>
<path d="M476.546 93.6886L469.516 103.166L438.894 196.564L453.248 202.311L476.232 158.789L476.546 93.6886Z" fill="#CBCBCB"/>
<path d="M524.516 36.5612C524.516 49.1526 514.308 59.3599 501.717 59.3599C489.126 59.3599 478.918 49.1526 478.918 36.5612C478.918 23.9698 489.126 13.7624 501.717 13.7624C514.308 13.7624 524.516 23.9698 524.516 36.5612Z" stroke="black"/>
<path d="M502.032 60.9142C511.422 60.9142 519.034 53.3022 519.034 43.9124C519.034 34.5226 511.422 26.9106 502.032 26.9106C492.642 26.9106 485.03 34.5226 485.03 43.9124C485.03 53.3022 492.642 60.9142 502.032 60.9142Z" fill="#389429"/>
<path d="M512.551 13.3721C512.551 20.3991 506.855 26.0957 499.828 26.0957C492.801 26.0957 487.104 20.3991 487.104 13.3721C487.104 6.34501 492.801 0.648453 499.828 0.648453C506.855 0.648453 512.551 6.345 512.551 13.3721Z" stroke="black"/>
<path d="M519.452 30.3831C519.383 33.7785 518.467 37.026 516.894 39.4517C515.32 41.8774 513.21 43.295 511.001 43.4104C511.137 43.423 511.271 43.4475 511.41 43.4502C513.69 43.4954 515.905 42.1457 517.567 39.6982C519.229 37.2507 520.201 33.9058 520.271 30.3994C520.34 26.8929 519.5 23.5122 517.937 21.0009C516.373 18.4895 514.213 17.0533 511.933 17.0082C511.794 17.0055 511.659 17.0247 511.523 17.0319C513.725 17.2345 515.778 18.7345 517.255 21.2206C518.731 23.7066 519.518 26.9878 519.452 30.3831Z" fill="black"/>
<path opacity="0.1" d="M532.606 99.0675L527.863 146.357L511.11 179.374L532.606 99.0675Z" fill="black"/>
<path d="M31.1451 244.612H27.038V248.034H31.1451V244.612Z" fill="#F0F0F0"/>
<path d="M419.623 248.034H411.53V244.612H419.623V248.034ZM403.437 248.034H395.343V244.612H403.437V248.034ZM387.25 248.034H379.157V244.612H387.25V248.034ZM371.064 248.034H362.97V244.612H371.064V248.034ZM354.877 248.034H346.784V244.612H354.877V248.034ZM338.69 248.034H330.597V244.612H338.69L338.69 248.034ZM322.504 248.034H314.411V244.612H322.504V248.034ZM306.317 248.034H298.224V244.612H306.317V248.034ZM290.131 248.034H282.038V244.612H290.131V248.034ZM273.944 248.034H265.851V244.612H273.944L273.944 248.034ZM257.758 248.034H249.664V244.612H257.758L257.758 248.034ZM241.571 248.034H233.478V244.612H241.571L241.571 248.034ZM225.385 248.034H217.291V244.612H225.385L225.385 248.034ZM209.198 248.034H201.105V244.612H209.198L209.198 248.034ZM193.011 248.034H184.918V244.612H193.011L193.011 248.034ZM176.825 248.034H168.731V244.612H176.825L176.825 248.034ZM160.638 248.034H152.545V244.612H160.638L160.638 248.034ZM144.451 248.034H136.358V244.612H144.452L144.451 248.034ZM128.265 248.034H120.172V244.612H128.265L128.265 248.034ZM112.078 248.034H103.985V244.612H112.078L112.078 248.034ZM95.8915 248.034H87.7986V244.612H95.8917L95.8915 248.034ZM79.705 248.034H71.6118V244.612H79.7052L79.705 248.034ZM63.5184 248.034H55.4252V244.612H63.5187L63.5184 248.034ZM47.3319 248.034H39.2386V244.612H47.3321L47.3319 248.034Z" fill="#E4EDE3"/>
<path d="M31.1451 157.679H27.038V161.101H31.1451V157.679Z" fill="#F0F0F0"/>
<path d="M419.385 161.423H411.292V158H419.385V161.423ZM403.199 161.423H395.105V158H403.199V161.423ZM387.012 161.423H378.919V158H387.012V161.423ZM370.826 161.423H362.732V158H370.826V161.423ZM354.639 161.423H346.546V158H354.639V161.423ZM338.452 161.423H330.359V158H338.452L338.452 161.423ZM322.266 161.423H314.173V158H322.266V161.423ZM306.079 161.423H297.986V158H306.079V161.423ZM289.892 161.423H281.799V158H289.892V161.423ZM273.706 161.423H265.612V158H273.706L273.706 161.423ZM257.519 161.423H249.426V158H257.519L257.519 161.423ZM241.333 161.423H233.239V158H241.333L241.333 161.423ZM225.146 161.423H217.053V158H225.146L225.146 161.423ZM208.959 161.423H200.866V158H208.959L208.959 161.423ZM192.773 161.423H184.68V158H192.773L192.773 161.423ZM176.586 161.423H168.493V158H176.586L176.586 161.423ZM160.4 161.423H152.306V158H160.4L160.4 161.423ZM144.213 161.423H136.12V158H144.213L144.213 161.423ZM128.026 161.423H119.933V158H128.026L128.026 161.423ZM111.84 161.423H103.747V158H111.84L111.84 161.423ZM95.653 161.423H87.5601V158H95.6532L95.653 161.423ZM79.4664 161.423H71.3732V158H79.4667L79.4664 161.423ZM63.2799 161.423H55.1867V158H63.2801L63.2799 161.423ZM47.0933 161.423H39.0001V158H47.0936L47.0933 161.423Z" fill="#E4EDE3"/>
<path d="M419.385 69.2463H411.292V65.8238H419.385V69.2463ZM403.199 69.2463H395.105V65.8238H403.199V69.2463ZM387.012 69.2463H378.919V65.8238H387.012V69.2463ZM370.826 69.2463H362.732V65.8238H370.826V69.2463ZM354.639 69.2463H346.546V65.8238H354.639V69.2463ZM338.452 69.2463H330.359V65.8238H338.452L338.452 69.2463ZM322.266 69.2463H314.173V65.8238H322.266V69.2463ZM306.079 69.2463H297.986V65.8238H306.079V69.2463ZM289.892 69.2463H281.799V65.8238H289.892V69.2463ZM273.706 69.2463H265.612V65.8238H273.706L273.706 69.2463ZM257.519 69.2463H249.426V65.8238H257.519L257.519 69.2463ZM241.333 69.2463H233.239V65.8238H241.333L241.333 69.2463ZM225.146 69.2463H217.053V65.8238H225.146L225.146 69.2463ZM208.959 69.2463H200.866V65.8238H208.959L208.959 69.2463ZM192.773 69.2463H184.68V65.8238H192.773L192.773 69.2463ZM176.586 69.2463H168.493V65.8238H176.586L176.586 69.2463ZM160.4 69.2463H152.306V65.8238H160.4L160.4 69.2463ZM144.213 69.2463H136.12V65.8238H144.213L144.213 69.2463ZM128.026 69.2463H119.933V65.8238H128.026L128.026 69.2463ZM111.84 69.2463H103.747V65.8238H111.84L111.84 69.2463ZM95.653 69.2463H87.5601V65.8238H95.6532L95.653 69.2463ZM79.4664 69.2463H71.3732V65.8238H79.4667L79.4664 69.2463ZM63.2799 69.2463H55.1867V65.8238H63.2801L63.2799 69.2463ZM47.0933 69.2463H39.0001V65.8238H47.0936L47.0933 69.2463Z" fill="#E4EDE3"/>
<path d="M160.859 245.638H127.318V368.85H160.859V245.638Z" fill="#3F3D56"/>
<path d="M167.02 245.638H133.479V368.85H167.02V245.638Z" fill="#47A138"/>
<path d="M240.262 158.706H206.721V368.85H240.262V158.706Z" fill="#3F3D56"/>
<path d="M246.423 158.706H212.882V368.85H246.423V158.706Z" fill="#47A138"/>
<path d="M319.665 71.7734H286.124V368.85H319.665V71.7734Z" fill="#3F3D56"/>
<path d="M325.825 71.7734H292.285V368.85H325.825V71.7734Z" fill="#47A138"/>
<path d="M27.3805 167.604C31.917 167.604 35.5946 163.927 35.5946 159.39C35.5946 154.854 31.917 151.176 27.3805 151.176C22.844 151.176 19.1664 154.854 19.1664 159.39C19.1664 163.927 22.844 167.604 27.3805 167.604Z" fill="#E4EDE3"/>
<path d="M27.3805 75.4282C31.917 75.4282 35.5946 71.7506 35.5946 67.2141C35.5946 62.6776 31.917 59 27.3805 59C22.844 59 19.1664 62.6776 19.1664 67.2141C19.1664 71.7506 22.844 75.4282 27.3805 75.4282Z" fill="#E4EDE3"/>
<path d="M27.3804 254.537C31.9169 254.537 35.5945 250.859 35.5945 246.323C35.5945 241.786 31.9169 238.109 27.3804 238.109C22.8439 238.109 19.1663 241.786 19.1663 246.323C19.1663 250.859 22.8439 254.537 27.3804 254.537Z" fill="#E4EDE3"/>
<path d="M607.843 368.083H9.15527e-05V369.616H607.843V368.083Z" fill="#47A138"/>
<path d="M512.858 211.974L512.802 211.97C502.42 210.255 490.887 210.256 477.544 211.972H477.539C477.206 211.975 476.876 211.914 476.567 211.789C476.258 211.665 475.977 211.481 475.74 211.247C475.502 211.014 475.314 210.736 475.184 210.429C475.055 210.122 474.988 209.793 474.986 209.46V197.376C474.987 196.709 475.252 196.07 475.724 195.599C476.195 195.127 476.834 194.862 477.501 194.862C489.251 193.329 501.15 193.33 512.9 194.864H512.905C513.564 194.874 514.192 195.143 514.654 195.613C515.116 196.084 515.374 196.717 515.372 197.376V209.46C515.371 210.126 515.106 210.766 514.635 211.237C514.163 211.708 513.524 211.973 512.858 211.974Z" fill="white"/>
<path d="M512.858 211.974L512.802 211.97C502.42 210.255 490.887 210.256 477.544 211.972H477.539C477.206 211.975 476.876 211.914 476.567 211.789C476.258 211.665 475.977 211.481 475.74 211.247C475.502 211.014 475.314 210.736 475.184 210.429C475.055 210.122 474.988 209.793 474.986 209.46V197.376C474.987 196.709 475.252 196.07 475.724 195.599C476.195 195.127 476.834 194.862 477.501 194.862C489.251 193.329 501.15 193.33 512.9 194.864H512.905C513.564 194.874 514.192 195.143 514.654 195.613C515.116 196.084 515.374 196.717 515.372 197.376V209.46C515.371 210.126 515.106 210.766 514.635 211.237C514.163 211.708 513.524 211.973 512.858 211.974ZM494.73 194.399C488.983 194.389 483.242 194.771 477.547 195.543C477.303 195.539 477.061 195.583 476.835 195.674C476.608 195.764 476.402 195.898 476.227 196.068C476.053 196.239 475.914 196.442 475.818 196.667C475.723 196.891 475.673 197.132 475.671 197.376V209.46C475.671 209.945 475.864 210.41 476.207 210.753C476.55 211.096 477.015 211.289 477.501 211.29C490.855 209.57 502.444 209.569 512.885 211.289C513.365 211.282 513.823 211.086 514.161 210.744C514.498 210.401 514.687 209.94 514.688 209.46V197.376C514.687 196.891 514.494 196.426 514.151 196.083C513.808 195.74 513.343 195.547 512.858 195.546C506.845 194.792 500.791 194.409 494.73 194.399Z" fill="#47A138"/>
<path d="M495.179 207.632C497.825 207.632 499.971 205.487 499.971 202.841C499.971 200.195 497.825 198.049 495.179 198.049C492.533 198.049 490.388 200.195 490.388 202.841C490.388 205.487 492.533 207.632 495.179 207.632Z" fill="#47A138"/>
<path d="M482.858 200.338H478.751C478.479 200.337 478.218 200.229 478.025 200.037C477.833 199.844 477.724 199.583 477.724 199.311V197.942C477.724 197.67 477.833 197.409 478.025 197.216C478.218 197.024 478.479 196.915 478.751 196.915H482.858C483.13 196.915 483.391 197.024 483.584 197.216C483.776 197.409 483.884 197.67 483.885 197.942V199.311C483.884 199.583 483.776 199.844 483.584 200.037C483.391 200.229 483.13 200.337 482.858 200.338Z" fill="#47A138"/>
<path d="M511.607 209.921H507.5C507.228 209.921 506.967 209.812 506.774 209.62C506.582 209.427 506.474 209.166 506.473 208.894V207.525C506.474 207.253 506.582 206.992 506.774 206.799C506.967 206.607 507.228 206.499 507.5 206.498H511.607C511.879 206.499 512.14 206.607 512.333 206.799C512.525 206.992 512.634 207.253 512.634 207.525V208.894C512.634 209.166 512.525 209.427 512.333 209.62C512.14 209.812 511.879 209.921 511.607 209.921Z" fill="#47A138"/>
<path d="M505.661 196.103L505.661 196.1C505.596 195.169 505.735 194.235 506.07 193.364C506.405 192.493 506.926 191.705 507.598 191.058C508.27 190.41 509.075 189.917 509.958 189.615C510.841 189.312 511.779 189.207 512.707 189.306L513.061 189.344L513.213 189.022L523.247 167.736L529.225 177.547L518.451 196.639L518.409 196.714L518.394 196.798C518.124 198.347 517.295 199.742 516.065 200.721C514.834 201.699 513.288 202.192 511.718 202.106C510.149 202.02 508.665 201.362 507.549 200.255C506.433 199.149 505.761 197.671 505.661 196.103Z" stroke="black"/>
<path d="M533.52 80.3997L537.816 74.7978C537.816 74.7978 548.282 72.6661 550.06 87.0417L548.94 150.951L526.005 187.05L511.11 183.247L530.585 140.364L533.52 80.3997Z" fill="#CBCBCB"/>
<path d="M505.071 44.9084C505.381 44.7725 505.664 44.5551 505.901 44.2706C506.058 44.0678 506.178 43.8244 506.252 43.5575C506.326 43.2906 506.353 43.0066 506.33 42.7255C506.317 42.5251 506.267 42.3312 506.184 42.1591C506.101 41.9869 505.988 41.8411 505.852 41.733C505.501 41.4625 505.037 41.4727 504.569 41.7448L504.515 37L504.134 37.0068L504.198 42.5847L504.488 42.3468C504.823 42.0713 505.306 41.8715 505.653 42.1391C505.739 42.2099 505.811 42.3046 505.862 42.4157C505.914 42.5269 505.945 42.6516 505.952 42.7801C505.968 42.9895 505.948 43.2008 505.893 43.3996C505.838 43.5984 505.749 43.78 505.633 43.9321C505.221 44.4448 504.611 44.6166 503.914 44.7737L503.981 45.2428C504.352 45.1723 504.716 45.0604 505.071 44.9084Z" fill="black"/>
<path d="M511.67 38.0607L508.038 38.6109L508.14 39.2853L511.772 38.7351L511.67 38.0607Z" fill="black"/>
<path d="M493.102 38.0607L496.735 38.6109L496.633 39.2853L493 38.7351L493.102 38.0607Z" fill="black"/>
</svg>
