<svg width="31" height="30" viewBox="0 0 31 30" fill="none" xmlns="http://www.w3.org/2000/svg">
<path d="M1.005 29.6L3.12499 21.68C1.92499 19.51 1.295 17.08 1.295 14.62C1.295 6.56 7.85499 0 15.905 0C23.955 0 30.525 6.56 30.525 14.62C30.525 22.68 23.965 29.24 15.905 29.24C13.485 29.24 11.095 28.63 8.95499 27.47L0.994995 29.6H1.005ZM9.355 24.5L9.855 24.8C11.695 25.9 13.785 26.48 15.905 26.48C22.445 26.48 27.755 21.16 27.755 14.63C27.755 8.1 22.445 2.77 15.905 2.77C9.365 2.77 4.055 8.08 4.055 14.62C4.055 16.78 4.65499 18.9 5.785 20.77L6.095 21.27L4.915 25.69L9.355 24.5Z" fill="white"/>
<path fill-rule="evenodd" clip-rule="evenodd" d="M21.345 16.65C20.745 16.29 19.965 15.89 19.255 16.18C18.715 16.4 18.365 17.25 18.015 17.69C17.835 17.91 17.615 17.95 17.345 17.84C15.305 17.03 13.745 15.66 12.615 13.79C12.425 13.5 12.455 13.27 12.685 13C13.025 12.6 13.455 12.14 13.545 11.6C13.635 11.06 13.385 10.43 13.165 9.95001C12.875 9.34001 12.565 8.46001 11.945 8.11001C11.375 7.79001 10.635 7.97001 10.135 8.38001C9.26503 9.09001 8.84503 10.2 8.85503 11.3C8.85503 11.61 8.89503 11.92 8.96503 12.23C9.14503 12.96 9.47503 13.63 9.85503 14.28C10.135 14.77 10.445 15.24 10.785 15.69C11.875 17.17 13.235 18.46 14.805 19.42C15.595 19.9 16.435 20.32 17.315 20.61C18.295 20.93 19.175 21.27 20.235 21.07C21.345 20.86 22.445 20.17 22.885 19.1C23.015 18.78 23.085 18.43 23.005 18.1C22.855 17.41 21.915 17 21.355 16.66L21.345 16.65Z" fill="white"/>
</svg>
